{"title":"Amazing Spide-rman 2 (2014) 1080p BRrip - unknown","uid":10598234,"size":3289915119,"categoryP":"video","categoryS":"hd___movies","magnet":"?xt=urn:btih:24a565e3531d57a74783ed3230d37777865375b7&amp;dn=Amazing+Spide-rman+2+%282014%29+1080p+BRrip+-+unknown&amp;tr=udp%3A%2F%2Ftracker.openbittorrent.com%3A80&amp;tr=udp%3A%2F%2Fopen.demonii.com%3A1337&amp;tr=udp%3A%2F%2Ftracker.coppersurfer.tk%3A6969&amp;tr=udp%3A%2F%2Fexodus.desync.com%3A6969","seeders":1,"leechers":1,"uploader":"corpvs","files":1,"time":1405883689,"description":"amazing spider-man 2 2014 2080p br-rip \n\nmpeg-4\n\nRuntime 142 min\n\n\n   General\n      Complete name : F:The Amazing Spider-Man 2 2014.mp4\n      Format : MPEG-4\n      Format profile : Base Media\n      Codec ID : isom\n      File size : 3.06 GiB\n      Duration : 2h 21mn\n      Overall bit rate : 3 098 Kbps\n      Writing application : Lavf55.19.102\n\n   Video #1\n      ID : 1\n      Format : AVC\n      Format/Info : Advanced Video Codec\n      Format profile : &lt;a class=&quot;__cf_email__&quot; href=&quot;/cdn-cgi/l/email-protection&quot; data-cfemail=&quot;5911303e3119156d7769&quot;&gt;[email&amp;#160;protected]&lt;/a&gt;&lt;script cf-hash='f9e31' type=&quot;text/javascript&quot;&gt;\n/* &lt;![CDATA[ */!function(){try{var t=&quot;currentScript&quot;in document?document.currentScript:function(){for(var t=document.getElementsByTagName(&quot;script&quot;),e=t.length;e--;)if(t[e].getAttribute(&quot;cf-hash&quot;))return t[e]}();if(t&amp;&amp;t.previousSibling){var e,r,n,i,c=t.previousSibling,a=c.getAttribute(&quot;data-cfemail&quot;);if(a){for(e=&quot;&quot;,r=parseInt(a.substr(0,2),16),n=2;a.length-n;n+=2)i=parseInt(a.substr(n,2),16)^r,e+=String.fromCharCode(i);e=document.createTextNode(e),c.parentNode.replaceChild(e,c)}}}catch(u){}}();/* ]]&gt; */&lt;/script&gt;\n      Format settings, CABAC : Yes\n      Format settings, ReFrames : 2 frames\n      Codec ID : avc1\n      Codec ID/Info : Advanced Video Coding\n      Duration : 2h 21mn\n      Bit rate : 2 964 Kbps\n      Width : 1 920 pixels\n      Height : 1 080 pixels\n      Display aspect ratio : 16:9\n      Frame rate mode : Variable\n      Frame rate : 23.976 fps\n      Minimum frame rate : 23.974 fps\n      Maximum frame rate : 23.981 fps\n      Color space : YUV\n      Chroma subsampling : 4:2:0\n      Bit depth : 8 bits\n      Scan type : Progressive\n      Bits/(Pixel*Frame) : 0.060\n      Stream size : 2.93 GiB (96%)\n\n   Audio #2\n      ID : 2\n      Format : AAC\n      Format/Info : Advanced Audio Codec\n      Format profile : LC\n      Codec ID : 40\n      Duration : 2h 21mn\n      Bit rate mode : Constant\n      Bit rate : 128 Kbps\n      Channel(s) : 2 channels\n      Channel positions : Front: L R\n      Sampling rate : 44.1 KHz\n      Compression mode : Lossy\n      Delay relative to video : 42ms\n      Stream size : 129 MiB (4%)\n","torrent":{"xt":"urn:btih:24a565e3531d57a74783ed3230d37777865375b7","amp;dn":"Amazing+Spide-rman+2+%282014%29+1080p+BRrip+-+unknown","amp;tr":["udp%3A%2F%2Ftracker.openbittorrent.com%3A80","udp%3A%2F%2Fopen.demonii.com%3A1337","udp%3A%2F%2Ftracker.coppersurfer.tk%3A6969","udp%3A%2F%2Fexodus.desync.com%3A6969"],"infoHash":"24a565e3531d57a74783ed3230d37777865375b7","infoHashBuffer":{"type":"Buffer","data":[36,165,101,227,83,29,87,167,71,131,237,50,48,211,119,119,134,83,117,183]},"announce":[],"urlList":[]}}